{"glyphs":{"\u0000":{"ha":0,"x_min":0,"x_max":0,"o":""},"\r":{"ha":347,"x_min":0,"x_max":0,"o":""}," ":{"ha":347,"x_min":0,"x_max":0,"o":""},"o":{"ha":1036,"x_min":0,"x_max":0,"o":"m 56 347 b 518 -18 56 128 229 -18 b 981 347 807 -18 981 128 b 518 713 981 567 807 713 b 56 347 229 713 56 567 z m 160 347 b 518 613 160 501 278 613 b 876 347 758 613 876 501 b 518 82 876 193 758 82 b 160 347 278 82 160 193 z "},"h":{"ha":994,"x_min":0,"x_max":0,"o":"m 97 0 l 199 0 l 199 422 b 526 615 306 585 467 615 b 796 347 611 615 796 592 l 796 0 l 897 0 l 897 393 b 544 713 897 617 688 713 b 199 539 461 713 306 694 l 199 990 l 97 990 z "},"n":{"ha":994,"x_min":0,"x_max":0,"o":"m 97 0 l 199 0 l 199 422 b 526 615 306 585 467 615 b 796 347 611 615 796 592 l 796 0 l 897 0 l 897 393 b 544 713 897 617 688 713 b 199 539 461 713 306 694 l 199 694 l 97 694 z "},"i":{"ha":303,"x_min":0,"x_max":0,"o":"m 83 924 b 151 856 83 882 111 856 b 219 924 192 856 219 882 b 151 990 219 964 192 990 b 83 924 111 990 83 964 z m 100 0 l 201 0 l 201 694 l 100 694 z "},"s":{"ha":901,"x_min":0,"x_max":0,"o":"m 83 500 b 740 194 83 229 740 375 b 461 82 740 101 590 82 b 56 239 233 82 115 178 l 56 106 b 461 -18 144 39 257 -18 b 846 208 650 -18 846 29 b 189 514 846 486 189 340 b 443 613 189 564 283 613 b 818 456 626 613 744 538 l 818 589 b 443 713 715 676 603 713 b 83 500 224 713 83 651 z "},"e":{"ha":940,"x_min":0,"x_max":0,"o":"m 885 239 b 493 82 825 174 700 82 b 161 318 285 82 175 179 l 869 318 b 464 713 879 601 693 713 b 56 347 229 713 56 567 b 493 -18 56 128 222 -18 b 885 106 676 -18 796 35 z m 168 414 b 464 613 197 532 306 613 b 760 414 615 613 732 558 z "},"d":{"ha":1075,"x_min":0,"x_max":0,"o":"m 56 347 b 504 -18 56 128 229 -18 b 876 119 665 -18 799 28 l 876 0 l 978 0 l 978 990 l 876 990 l 876 575 b 504 713 799 667 665 713 b 56 347 229 713 56 567 z m 160 347 b 532 613 160 501 278 613 b 876 449 689 613 826 560 l 876 246 b 532 82 826 135 689 82 b 160 347 278 82 160 193 z "},"c":{"ha":940,"x_min":0,"x_max":0,"o":"m 885 239 b 493 82 825 174 714 82 b 160 347 271 82 160 193 b 486 613 160 501 271 613 b 871 456 700 613 811 514 l 871 589 b 486 713 782 653 676 713 b 56 347 222 713 56 567 b 493 -18 56 128 222 -18 b 885 106 690 -18 796 35 z "},"O":{"ha":1314,"x_min":0,"x_max":0,"o":"m 56 486 b 657 -18 56 183 285 -18 b 1258 486 1029 -18 1258 183 b 657 990 1258 789 1029 990 b 56 486 285 990 56 789 z m 164 486 b 657 886 164 733 358 886 b 1150 486 956 886 1150 733 b 657 86 1150 239 956 86 b 164 486 358 86 164 239 z "},"H":{"ha":1239,"x_min":0,"x_max":0,"o":"m 104 0 l 208 0 l 208 486 l 1031 486 l 1031 0 l 1135 0 l 1135 972 l 1031 972 l 1031 586 l 208 586 l 208 972 l 104 972 z "},"N":{"ha":1239,"x_min":0,"x_max":0,"o":"m 104 0 l 208 0 l 208 828 l 1031 0 l 1135 0 l 1135 972 l 1031 972 l 1031 144 l 208 972 l 104 972 z "},"E":{"ha":1086,"x_min":0,"x_max":0,"o":"m 104 0 l 1003 0 l 1003 100 l 208 100 l 208 472 l 836 472 l 836 572 l 208 572 l 208 872 l 975 872 l 975 972 l 104 972 z "},"I":{"ha":313,"x_min":0,"x_max":0,"o":"m 104 0 l 208 0 l 208 972 l 104 972 z "},"C":{"ha":1179,"x_min":0,"x_max":0,"o":"m 1124 283 b 685 86 1046 165 890 86 b 164 486 358 86 164 239 b 629 886 164 733 358 886 b 1082 689 835 886 1004 807 l 1082 853 b 629 990 978 933 814 990 b 56 486 285 990 56 789 b 685 -18 56 183 285 -18 b 1124 119 869 -18 1019 39 z "},"D":{"ha":1229,"x_min":0,"x_max":0,"o":"m 104 0 l 579 0 b 1174 486 975 3 1174 185 b 579 972 1174 788 975 969 l 104 972 z m 572 100 l 208 100 l 208 872 l 572 872 b 1065 486 885 872 1065 733 b 572 100 1065 239 885 100 z "},"S":{"ha":1110,"x_min":0,"x_max":0,"o":"m 90 708 b 938 278 90 347 938 538 b 543 86 938 133 726 86 b 63 283 338 86 140 165 l 63 119 b 543 -18 167 39 358 -18 b 1047 292 800 -18 1047 49 b 200 722 1047 653 200 463 b 553 886 200 839 369 886 b 1019 689 758 886 942 807 l 1019 853 b 553 990 915 933 738 990 b 90 708 296 990 90 924 z "},"a":{"ha":1075,"x_min":0,"x_max":0,"o":"m 56 347 b 504 -18 56 128 229 -18 b 876 119 665 -18 799 28 l 876 0 l 978 0 l 978 694 l 876 694 l 876 575 b 504 713 799 667 665 713 b 56 347 229 713 56 567 z m 160 347 b 532 613 160 501 278 613 b 876 449 689 613 826 560 l 876 246 b 532 82 826 135 689 82 b 160 347 278 82 160 193 z "},"A":{"ha":1181,"x_min":0,"x_max":0,"o":"m 532 972 l 38 0 l 154 0 l 272 233 l 906 233 l 906 238 l 1026 0 l 1143 0 l 649 972 z m 324 333 l 590 857 l 857 333 z "},"b":{"ha":1075,"x_min":0,"x_max":0,"o":"m 1019 347 b 571 713 1019 567 846 713 b 199 575 410 713 276 667 l 199 990 l 97 990 l 97 0 l 199 0 l 199 119 b 571 -18 276 28 410 -18 b 1019 347 846 -18 1019 128 z m 915 347 b 543 82 915 193 797 82 b 199 246 386 82 249 135 l 199 449 b 543 613 249 560 386 613 b 915 347 797 613 915 501 z "},"f":{"ha":438,"x_min":0,"x_max":0,"o":"m 97 653 l 28 653 l 28 557 l 97 557 l 97 0 l 199 0 l 199 557 l 338 557 l 338 653 l 199 653 l 199 736 b 303 890 199 849 226 890 b 479 761 371 890 413 844 l 479 908 b 303 990 422 978 347 990 b 97 736 136 990 97 900 z "},"g":{"ha":1049,"x_min":0,"x_max":0,"o":"m 850 694 l 850 581 b 492 713 775 669 650 713 b 57 347 217 713 57 567 b 492 -18 57 128 217 -18 b 850 114 650 -18 775 25 l 850 88 b 475 -178 850 -81 739 -178 b 42 0 247 -178 129 -79 l 42 -133 b 475 -278 158 -218 271 -278 b 951 88 788 -278 951 -146 l 951 694 z m 161 347 b 519 613 161 501 265 613 b 850 453 675 613 801 561 l 850 242 b 519 82 801 133 675 82 b 161 347 265 82 161 193 z "},"j":{"ha":303,"x_min":0,"x_max":0,"o":"m 83 924 b 151 856 83 882 111 856 b 219 924 192 856 219 882 b 151 990 219 964 192 990 b 83 924 111 990 83 964 z m 201 694 l 100 694 l 100 -42 b -8 -196 100 -154 68 -196 b -194 -81 -90 -196 -126 -171 l -194 -214 b -8 -296 -137 -281 -53 -296 b 201 -42 158 -296 201 -206 z "},"k":{"ha":796,"x_min":0,"x_max":0,"o":"m 97 0 l 199 0 l 199 325 l 629 0 l 796 0 l 294 369 l 754 694 l 590 694 l 199 417 l 199 990 l 97 990 z "},"l":{"ha":296,"x_min":0,"x_max":0,"o":"m 97 0 l 199 0 l 199 990 l 97 990 z "},"m":{"ha":1526,"x_min":0,"x_max":0,"o":"m 97 0 l 199 0 l 199 424 b 472 615 299 585 413 615 b 713 347 543 615 713 592 l 713 0 l 814 0 l 814 393 b 813 422 814 403 814 413 b 1088 615 913 585 1028 615 b 1328 347 1158 615 1328 592 l 1328 0 l 1429 0 l 1429 393 b 1106 713 1429 617 1235 713 b 790 517 1021 713 908 694 b 490 713 735 651 592 713 b 199 540 407 713 297 694 l 199 694 l 97 694 z "},"p":{"ha":1075,"x_min":0,"x_max":0,"o":"m 1019 347 b 571 713 1019 567 846 713 b 199 575 410 713 276 667 l 199 694 l 97 694 l 97 -250 l 199 -250 l 199 119 b 571 -18 276 28 410 -18 b 1019 347 846 -18 1019 128 z m 915 347 b 543 82 915 193 797 82 b 199 246 386 82 249 135 l 199 449 b 543 613 249 560 386 613 b 915 347 797 613 915 501 z "},"q":{"ha":1075,"x_min":0,"x_max":0,"o":"m 56 347 b 504 -18 56 128 229 -18 b 876 119 665 -18 799 28 l 876 -250 l 978 -250 l 978 694 l 876 694 l 876 575 b 504 713 799 667 665 713 b 56 347 229 713 56 567 z m 160 347 b 532 613 160 501 278 613 b 876 449 689 613 826 560 l 876 246 b 532 82 826 135 689 82 b 160 347 278 82 160 193 z "},"r":{"ha":585,"x_min":0,"x_max":0,"o":"m 97 0 l 199 0 l 199 393 b 550 601 299 589 399 601 l 550 713 b 199 510 417 713 299 696 l 199 694 l 97 694 z "},"t":{"ha":514,"x_min":0,"x_max":0,"o":"m 104 236 b 310 -18 104 72 143 -18 b 486 78 368 -18 429 3 l 486 211 b 310 82 419 128 378 82 b 206 236 233 82 206 124 l 206 599 l 344 599 l 344 694 l 206 694 l 206 872 l 104 872 l 104 694 l 35 694 l 35 599 l 104 599 z "},"u":{"ha":994,"x_min":0,"x_max":0,"o":"m 897 694 l 796 694 l 796 272 b 468 79 689 110 528 79 b 199 347 383 79 199 103 l 199 694 l 97 694 l 97 301 b 450 -18 97 78 307 -18 b 796 156 533 -18 689 0 l 796 0 l 897 0 z "},"v":{"ha":901,"x_min":0,"x_max":0,"o":"m 132 694 l 15 694 l 392 0 l 508 0 l 886 694 l 769 694 l 450 107 z "},"w":{"ha":1371,"x_min":0,"x_max":0,"o":"m 125 694 l 15 694 l 322 0 l 432 0 l 685 571 l 938 0 l 1047 0 l 1356 694 l 1246 694 l 993 124 l 740 694 l 631 694 l 378 124 z "},"x":{"ha":865,"x_min":0,"x_max":0,"o":"m 194 694 l 56 694 l 361 372 l 14 0 l 153 0 l 431 299 l 714 0 l 851 0 l 506 365 l 810 694 l 672 694 l 436 439 z "},"y":{"ha":899,"x_min":0,"x_max":0,"o":"m 768 694 l 449 107 l 131 694 l 14 694 l 390 0 b 239 -150 333 -112 301 -150 b 39 1 143 -150 107 -103 l 39 -146 b 242 -250 96 -212 156 -250 b 507 0 367 -250 415 -168 l 885 694 z "},"z":{"ha":871,"x_min":0,"x_max":0,"o":"m 56 110 l 56 0 l 815 0 l 815 96 l 196 96 l 788 585 l 788 694 l 111 694 l 111 599 l 644 599 z "},"B":{"ha":1236,"x_min":0,"x_max":0,"o":"m 104 0 l 579 0 b 1174 286 1031 3 1174 82 b 865 535 1174 425 1083 501 b 1090 722 1035 568 1090 633 b 579 972 1090 899 975 969 l 104 972 z m 208 572 l 208 872 l 572 872 b 982 722 885 872 982 831 b 572 572 982 614 885 572 z m 208 100 l 208 472 l 572 472 b 1065 286 940 472 1065 422 b 572 100 1065 150 940 100 z "},"F":{"ha":933,"x_min":0,"x_max":0,"o":"m 104 0 l 208 0 l 208 472 l 781 472 l 781 572 l 208 572 l 208 872 l 919 872 l 919 972 l 104 972 z "},"G":{"ha":1246,"x_min":0,"x_max":0,"o":"m 1081 853 b 629 990 978 935 832 990 b 56 486 285 990 56 789 b 671 -18 56 183 271 -18 b 1203 486 1001 -18 1217 183 l 601 486 l 601 386 l 1089 386 b 671 86 1056 199 892 86 b 164 486 344 86 164 239 b 629 886 164 733 358 886 b 1081 689 847 886 999 803 z "},"J":{"ha":289,"x_min":0,"x_max":0,"o":"m 206 972 l 101 972 l 101 -56 b -7 -196 101 -154 69 -196 b -193 -81 -89 -196 -125 -171 l -193 -214 b -7 -296 -136 -281 -51 -296 b 206 -56 160 -296 206 -206 z "},"K":{"ha":1076,"x_min":0,"x_max":0,"o":"m 846 0 l 1024 0 l 290 524 l 956 972 l 779 972 l 208 588 l 208 972 l 104 972 l 104 0 l 208 0 l 208 461 z "},"L":{"ha":892,"x_min":0,"x_max":0,"o":"m 104 0 l 864 0 l 864 100 l 208 100 l 208 972 l 104 972 z "},"M":{"ha":1603,"x_min":0,"x_max":0,"o":"m 751 0 l 851 0 l 1394 792 l 1394 0 l 1499 0 l 1499 972 l 1394 972 l 801 108 l 208 972 l 104 972 l 104 0 l 208 0 l 208 792 z "},"P":{"ha":1132,"x_min":0,"x_max":0,"o":"m 104 0 l 208 0 l 208 417 l 579 417 b 1090 694 975 419 1090 518 b 579 972 1090 871 975 969 l 104 972 z m 572 517 l 208 517 l 208 872 l 572 872 b 982 694 885 872 982 803 b 572 517 982 586 885 517 z "},"Q":{"ha":1314,"x_min":0,"x_max":0,"o":"m 56 486 b 657 -18 56 183 285 -18 b 725 -15 681 -18 703 -17 l 929 -236 l 1078 -236 l 856 4 b 1258 486 1110 64 1258 242 b 657 990 1258 789 1029 990 b 56 486 285 990 56 789 z m 164 486 b 657 886 164 733 358 886 b 1150 486 956 886 1150 733 b 657 86 1150 239 956 86 b 164 486 358 86 164 239 z "},"R":{"ha":1176,"x_min":0,"x_max":0,"o":"m 104 0 l 208 0 l 208 472 l 528 472 l 965 0 l 1114 0 l 674 475 b 1090 722 993 489 1090 561 b 579 972 1090 899 975 969 l 104 972 z m 572 572 l 208 572 l 208 872 l 572 872 b 982 722 885 872 982 831 b 572 572 982 614 885 572 z "},"T":{"ha":972,"x_min":0,"x_max":0,"o":"m 435 0 l 539 0 l 539 872 l 931 872 l 931 972 l 42 972 l 42 872 l 435 872 z "},"U":{"ha":1197,"x_min":0,"x_max":0,"o":"m 83 486 b 599 -18 83 156 226 -18 b 1114 486 971 -18 1114 156 l 1114 972 l 1010 972 b 1010 486 1010 783 1010 676 b 599 86 1010 211 897 86 b 188 486 300 86 188 211 l 188 972 l 83 972 z "},"V":{"ha":1157,"x_min":0,"x_max":0,"o":"m 519 0 l 638 0 l 1132 972 l 1014 972 l 579 117 l 143 972 l 25 972 z "},"W":{"ha":1594,"x_min":0,"x_max":0,"o":"m 386 0 l 497 0 l 797 821 l 1097 0 l 1208 0 l 1564 972 l 1453 972 l 1153 151 l 853 972 l 742 972 l 442 151 l 142 972 l 31 972 z "},"X":{"ha":1132,"x_min":0,"x_max":0,"o":"m 14 0 l 154 0 l 563 449 l 974 0 l 1118 0 l 640 521 l 1050 972 l 910 972 l 571 599 l 228 972 l 83 972 l 492 526 z "},"Y":{"ha":1067,"x_min":0,"x_max":0,"o":"m 1058 972 l 931 972 l 533 422 l 139 972 l 8 972 l 482 315 l 482 0 l 586 0 l 586 321 z "},"Z":{"ha":1000,"x_min":0,"x_max":0,"o":"m 56 872 l 808 872 l 56 114 l 56 0 l 944 0 l 944 100 l 193 100 l 944 858 l 944 972 l 56 972 z "}}}
